<svg version="1.1" viewBox="0.0 0.0 624.0 792.0" fill="none" stroke="none" stroke-linecap="square" stroke-miterlimit="10" xmlns:xlink="http://www.w3.org/1999/xlink" xmlns="http://www.w3.org/2000/svg"><clipPath id="p.0"><path d="m0 0l624.0 0l0 792.0l-624.0 0l0 -792.0z" clip-rule="nonzero"/></clipPath><g clip-path="url(#p.0)"><path fill="#000000" fill-opacity="0.0" d="m0 0l624.0 0l0 792.0l-624.0 0z" fill-rule="evenodd"/><path fill="#ffffff" d="m132.14174 0l359.71655 0l0 43.11811l-359.71655 0z" fill-rule="evenodd"/><path fill="#ffffff" d="m111.56956 21.559055l0 0c0 -11.93283 9.67347 -21.6063 21.6063 -21.6063l0 0c5.7303467 0 11.225983 2.2763715 15.277954 6.3283386c4.0519714 4.0519667 6.3283386 9.547614 6.3283386 15.277961l0 0c0 11.932831 -9.673462 21.6063 -21.606293 21.6063l0 0c-11.932831 0 -21.6063 -9.67347 -21.6063 -21.6063z" fill-rule="evenodd"/><path fill="#ffffff" d="m466.76904 21.559055l0 0c0 -11.93283 9.673462 -21.6063 21.606293 -21.6063l0 0c5.7303467 0 11.225983 2.2763715 15.277954 6.3283386c4.0519714 4.0519667 6.3283386 9.547614 6.3283386 15.277961l0 0c0 11.932831 -9.673462 21.6063 -21.606293 21.6063l0 0c-11.932831 0 -21.606293 -9.67347 -21.606293 -21.6063z" fill-rule="evenodd"/><path fill="#ffffff" d="m77.412094 69.2231l464.72443 0l0 43.11811l-464.72443 0z" fill-rule="evenodd"/><path fill="#ffffff" d="m56.392387 90.78215l0 0c0 -11.932831 9.67347 -21.6063 21.6063 -21.6063l0 0c5.7303467 0 11.22599 2.2763748 15.277962 6.3283386c4.051964 4.0519714 6.3283386 9.547615 6.3283386 15.277962l0 0c0 11.932831 -9.67347 21.6063 -21.6063 21.6063l0 0c-11.932831 0 -21.6063 -9.67347 -21.6063 -21.6063z" fill-rule="evenodd"/><path fill="#ffffff" d="m519.6286 90.78215l0 0c0 -11.932831 9.673462 -21.6063 21.606323 -21.6063l0 0c5.7303467 0 11.225952 2.2763748 15.277954 6.3283386c4.051941 4.0519714 6.328308 9.547615 6.328308 15.277962l0 0c0 11.932831 -9.673462 21.6063 -21.606262 21.6063l0 0c-11.932861 0 -21.606323 -9.67347 -21.606323 -21.6063z" fill-rule="evenodd"/><path fill="#ffffff" d="m59.60499 282.8819l0 0c0 -11.932831 9.67347 -21.606293 21.6063 -21.606293l0 0c5.7303467 0 11.22599 2.2763672 15.277962 6.3283386c4.051964 4.051941 6.3283386 9.547607 6.3283386 15.277954l0 0c0 11.932831 -9.67347 21.606293 -21.6063 21.606293l0 0c-11.932831 0 -21.6063 -9.673462 -21.6063 -21.606293z" fill-rule="evenodd"/><path fill="#ffffff" d="m81.2126 304.4882l0 0c-29.058304 0 -55.90232 -15.489319 -70.39344 -40.61786c-14.491118 -25.12854 -14.42085 -56.066635 0.18426609 -81.129395c14.605116 -25.06276 41.519215 -40.430542 70.577225 -40.299164l-0.19482422 42.88861l0 0c-13.712181 -0.061676025 -26.412594 7.171417 -33.30451 18.967468c-6.8919106 11.796036 -6.924984 26.3573 -0.08672333 38.18422c6.838257 11.826935 19.505688 19.11708 33.218006 19.11708z" fill-rule="evenodd"/><path fill="#ffffff" d="m562.8199 282.94974l0 0c0 -11.950226 -9.666443 -21.637817 -21.590576 -21.637817l0 0c-5.7261963 0 -11.217834 2.2796936 -15.266846 6.3375854c-4.049011 4.0578613 -6.3237305 9.561523 -6.3237305 15.300232l0 0c0 11.950195 9.666443 21.637787 21.590576 21.637787l0 0c11.924133 0 21.590576 -9.687592 21.590576 -21.637787z" fill-rule="evenodd"/><path fill="#ffffff" d="m541.2369 304.57632l0 0c29.024597 0 55.837402 -15.507477 70.311646 -40.665466c14.474243 -25.157974 14.40387 -56.132263 -0.18444824 -81.22424c-14.588379 -25.09198 -41.471436 -40.47751 -70.49573 -40.345657l0.19506836 42.938614c13.6605835 -0.062057495 26.313354 7.179306 33.179504 18.98909c6.86615 11.809784 6.899231 26.388153 0.08685303 38.229004c-6.812439 11.840851 -19.43219 19.139603 -33.092896 19.139603z" fill-rule="evenodd"/><path fill="#ffffff" d="m77.412094 142.44095l464.72443 0l0 43.118103l-464.72443 0z" fill-rule="evenodd"/><path fill="#ffffff" d="m239.71391 769.2021l0 -512.9133l43.11812 0l0 512.9133z" fill-rule="evenodd"/><path fill="#ffffff" d="m261.27298 791.99866l0 0c-11.932846 0 -21.606308 -9.673462 -21.606308 -21.606262l0 0c0 -5.7303467 2.2763672 -11.226013 6.3283386 -15.277954c4.051956 -4.052002 9.547607 -6.328369 15.277969 -6.328369l0 0c11.932831 0 21.606293 9.673462 21.606293 21.606323l0 0c0 11.9328 -9.673462 21.606262 -21.606293 21.606262z" fill-rule="evenodd"/><path fill="#ffffff" d="m261.27298 278.7861l0 0c-11.932846 0 -21.606308 -9.673492 -21.606308 -21.606323l0 0c0 -5.7303314 2.2763672 -11.225983 6.3283386 -15.277954c4.051956 -4.051956 9.547607 -6.3283386 15.277969 -6.3283386l0 0c11.932831 0 21.606293 9.673477 21.606293 21.606293l0 0c0 11.932831 -9.673462 21.606323 -21.606293 21.606323z" fill-rule="evenodd"/><path fill="#ffffff" d="m342.50787 769.2021l0 -512.9133l43.118103 0l0 512.9133z" fill-rule="evenodd"/><path fill="#ffffff" d="m364.06693 791.99866l0 0c-11.932831 0 -21.606293 -9.673462 -21.606293 -21.606262l0 0c0 -5.7303467 2.2763672 -11.226013 6.3283386 -15.277954c4.0519714 -4.052002 9.547607 -6.328369 15.277954 -6.328369l0 0c11.932831 0 21.606293 9.673462 21.606293 21.606323l0 0c0 11.9328 -9.673462 21.606262 -21.606293 21.606262z" fill-rule="evenodd"/><path fill="#ffffff" d="m364.06693 278.7861l0 0c-11.932831 0 -21.606293 -9.673492 -21.606293 -21.606323l0 0c0 -5.7303314 2.2763672 -11.225983 6.3283386 -15.277954c4.0519714 -4.051956 9.547607 -6.3283386 15.277954 -6.3283386l0 0c11.932831 0 21.606293 9.673477 21.606293 21.606293l0 0c0 11.932831 -9.673462 21.606323 -21.606293 21.606323z" fill-rule="evenodd"/><path fill="#ffffff" d="m136.91864 662.6221l0 -406.74017l43.118103 0l0 406.74017z" fill-rule="evenodd"/><path fill="#ffffff" d="m158.43045 686.89105l0 0c-11.932831 0 -21.606308 -9.673462 -21.606308 -21.606262l0 0c0 -5.7303467 2.2763824 -11.226013 6.3283386 -15.277954c4.0519714 -4.052002 9.547623 -6.328369 15.277969 -6.328369l0 0c11.932831 0 21.606293 9.673462 21.606293 21.606323l0 0c0 11.9328 -9.673462 21.606262 -21.606293 21.606262z" fill-rule="evenodd"/><path fill="#ffffff" d="m158.47769 278.78647l0 0c-11.932831 0 -21.606308 -9.673462 -21.606308 -21.606293l0 0c0 -5.730362 2.2763824 -11.226013 6.3283386 -15.277969c4.0519714 -4.0519714 9.547623 -6.3283386 15.277969 -6.3283386l0 0c11.932831 0 21.606293 9.673462 21.606293 21.606308l0 0c0 11.932831 -9.673462 21.606293 -21.606293 21.606293z" fill-rule="evenodd"/><path fill="#ffffff" d="m445.3517 662.6221l0 -406.74017l43.118103 0l0 406.74017z" fill-rule="evenodd"/><path fill="#ffffff" d="m466.86353 686.89105l0 0c-11.932831 0 -21.606293 -9.673462 -21.606293 -21.606262l0 0c0 -5.7303467 2.2763672 -11.226013 6.3283386 -15.277954c4.051941 -4.052002 9.547607 -6.328369 15.277954 -6.328369l0 0c11.932831 0 21.606293 9.673462 21.606293 21.606323l0 0c0 11.9328 -9.673462 21.606262 -21.606293 21.606262z" fill-rule="evenodd"/><path fill="#ffffff" d="m466.91077 278.78647l0 0c-11.932831 0 -21.606293 -9.673462 -21.606293 -21.606293l0 0c0 -5.730362 2.2763672 -11.226013 6.3283386 -15.277969c4.051941 -4.0519714 9.547607 -6.3283386 15.277954 -6.3283386l0 0c11.932831 0 21.606293 9.673462 21.606293 21.606308l0 0c0 11.932831 -9.673462 21.606293 -21.606293 21.606293z" fill-rule="evenodd"/></g></svg>